<svg xmlns="http://www.w3.org/2000/svg" viewBox="0 0 448 512" fill="#f5c518"><path d="M400 0H48C21.5 0 0 21.5 0 48v416c0 26.5 21.5 48 48 48h352c26.5 0 48-21.5 48-48V48c0-26.5-21.5-48-48-48zM88 352V160h32v192H88zm103.4 0L160 215.1v136.9h-32V160h44.5l31.4 139L235 160h44.5v192h-32V215.1L216.6 352h-25.2zm90.6-192v192h-32V160h32zm128 96c0 53-33.1 82.5-78.4 82.5-45.8 0-78.4-29.5-78.4-82.5s32.6-82.5 78.4-82.5S400 203 400 256zm-32 0c0-33-20-50.5-46.4-50.5S275.2 223 275.2 256s20 50.5 46.4 50.5 46.4-17.5 46.4-50.5z"/></svg>